<?xml version="1.0" encoding="utf-8"?>
<svg viewBox="85.429 26.832 600 141.4" xmlns="http://www.w3.org/2000/svg">
  <path class="st0" d="M 281.129 65.132 L 281.129 66.832 C 281.129 69.332 283.329 71.632 285.829 71.632 C 288.429 71.632 290.429 69.332 290.429 66.832 L 290.429 65.132 C 290.429 62.332 288.329 60.332 285.829 60.332 C 283.229 60.332 281.129 62.332 281.129 65.132 Z M 285.629 77.632 C 283.129 77.632 281.029 79.732 281.029 82.432 L 281.029 127.132 C 278.229 127.132 276.329 129.232 276.329 131.732 C 276.329 134.532 278.329 136.532 281.029 136.532 C 286.229 136.532 290.329 132.232 290.329 127.132 L 290.329 82.432 C 290.329 79.732 288.329 77.632 285.629 77.632 M 331.029 108.732 C 328.829 110.832 326.129 111.932 323.129 111.932 C 319.829 111.932 317.029 110.832 314.829 108.732 C 312.829 106.332 311.729 103.232 311.729 99.532 C 311.729 95.932 312.829 92.832 314.829 90.532 C 317.029 88.632 319.829 87.232 323.129 87.232 C 326.129 87.232 328.929 88.632 331.029 90.532 C 333.229 92.832 334.429 96.032 334.429 99.532 C 334.329 103.232 333.129 106.332 331.029 108.732 Z M 323.029 77.632 C 317.129 77.632 312.129 80.132 308.229 84.232 C 304.529 88.432 302.329 93.532 302.329 99.432 C 302.329 105.532 304.529 110.932 308.229 114.732 C 312.129 118.832 317.129 121.332 323.029 121.332 C 328.729 121.332 333.829 118.832 337.429 114.732 C 341.329 110.932 343.429 105.532 343.429 99.432 C 343.429 93.532 341.229 88.432 337.429 84.232 C 333.929 80.232 328.729 77.632 323.029 77.632 L 323.029 77.632 Z M 385.229 108.132 C 383.029 110.432 380.229 111.732 377.129 111.732 C 373.929 111.732 371.229 110.432 369.029 108.132 C 366.829 105.932 365.629 102.832 365.629 99.532 C 365.629 96.032 366.929 92.932 369.029 90.732 C 371.229 88.432 373.929 87.132 377.129 87.132 C 380.229 87.132 383.029 88.432 385.229 90.732 C 387.429 92.932 388.629 96.032 388.629 99.532 C 388.729 102.832 387.429 105.932 385.229 108.132 Z M 377.229 77.632 C 373.029 77.632 368.829 79.032 365.729 81.332 L 365.729 65.032 C 365.729 62.532 363.629 60.332 361.029 60.332 C 358.429 60.332 356.429 62.532 356.429 65.032 L 356.429 99.432 C 356.429 99.432 356.429 99.432 356.429 99.532 L 356.429 116.532 C 356.429 119.032 358.529 121.232 361.029 121.232 C 363.329 121.232 365.129 119.532 365.629 117.532 C 368.929 119.832 373.029 121.232 377.329 121.232 C 388.929 121.232 398.229 111.332 398.229 99.532 C 398.129 87.632 388.829 77.632 377.229 77.632 L 377.229 77.632 Z M 439.329 108.132 C 437.129 110.432 434.329 111.732 431.229 111.732 C 428.029 111.732 425.329 110.432 423.129 108.132 C 420.929 105.932 419.729 102.832 419.729 99.532 C 419.729 96.032 421.029 92.932 423.129 90.732 C 425.329 88.432 428.029 87.132 431.229 87.132 C 434.329 87.132 437.129 88.432 439.329 90.732 C 441.529 92.932 442.729 96.032 442.729 99.532 C 442.829 102.832 441.529 105.932 439.329 108.132 Z M 431.229 77.632 C 427.029 77.632 422.829 79.032 419.729 81.332 L 419.729 65.032 C 419.729 62.532 417.629 60.332 415.029 60.332 C 412.429 60.332 410.429 62.532 410.429 65.032 L 410.429 99.432 C 410.429 99.432 410.429 99.432 410.429 99.532 L 410.429 116.532 C 410.429 119.032 412.529 121.232 415.029 121.232 C 417.329 121.232 419.129 119.532 419.629 117.532 C 422.929 119.832 427.029 121.232 431.329 121.232 C 442.929 121.232 452.229 111.332 452.229 99.532 C 452.129 87.632 442.829 77.632 431.229 77.632 L 431.229 77.632 Z M 492.029 108.432 C 489.929 110.632 487.029 111.832 484.029 111.832 C 480.929 111.832 478.029 110.632 476.029 108.432 C 473.929 106.132 472.729 103.032 472.729 99.432 C 472.729 95.732 473.929 92.632 476.029 90.432 C 478.029 88.132 480.929 86.832 484.029 86.832 C 487.029 86.832 489.929 88.032 492.029 90.432 C 494.129 92.632 495.429 95.732 495.429 99.432 C 495.329 103.032 494.029 106.232 492.029 108.432 Z M 499.929 77.632 C 497.729 77.632 495.929 79.332 495.429 81.432 C 492.129 79.132 488.329 77.632 484.029 77.632 C 478.129 77.632 473.129 80.132 469.429 84.132 C 465.729 88.032 463.529 93.432 463.529 99.432 C 463.529 105.332 465.729 110.732 469.429 114.732 C 473.129 118.632 478.229 121.032 484.029 121.032 C 488.329 121.032 492.229 119.632 495.429 117.332 C 495.929 119.432 497.629 121.032 499.929 121.032 C 502.429 121.032 504.529 118.932 504.529 116.432 L 504.529 82.232 C 504.429 79.732 502.429 77.632 499.929 77.632 L 499.929 77.632 Z M 534.929 77.632 L 532.729 77.632 L 532.729 65.032 C 532.729 62.332 530.629 60.232 528.029 60.232 C 525.329 60.232 523.229 62.332 523.229 65.032 L 523.229 77.632 L 520.729 77.632 C 518.029 77.632 516.029 79.732 516.029 82.432 C 516.029 85.032 518.129 87.232 520.729 87.232 L 523.229 87.232 L 523.229 111.532 C 523.229 116.832 527.529 121.232 532.829 121.232 C 535.529 121.232 537.529 119.132 537.529 116.432 C 537.529 113.732 535.429 111.532 532.829 111.532 L 532.829 87.232 L 535.029 87.232 C 537.629 87.232 539.829 85.032 539.829 82.432 C 539.829 79.732 537.529 77.632 534.929 77.632 M 556.829 60.232 C 554.229 60.232 552.229 62.332 552.229 64.932 L 552.229 66.732 C 552.229 69.332 554.329 71.532 556.829 71.532 C 559.529 71.532 561.429 69.332 561.429 66.732 L 561.429 64.932 C 561.529 62.332 559.529 60.232 556.829 60.232 M 556.829 77.732 C 554.229 77.732 552.229 79.732 552.229 82.532 L 552.229 116.432 C 552.229 119.032 554.329 121.132 556.829 121.132 C 559.529 121.132 561.429 119.032 561.429 116.432 L 561.429 82.532 C 561.529 79.732 559.529 77.732 556.829 77.732 M 595.129 86.932 C 598.329 86.932 601.029 88.032 603.329 89.732 C 605.329 91.332 608.029 90.932 609.829 88.832 C 611.229 86.932 610.829 83.932 608.929 82.432 C 605.229 79.532 600.429 77.632 595.229 77.632 C 583.329 77.732 573.329 87.332 573.329 99.432 C 573.329 111.332 583.329 121.132 595.229 121.132 C 600.429 121.132 605.229 119.232 608.929 116.532 C 610.929 114.832 611.229 112.032 609.829 110.132 C 608.129 108.032 605.229 107.732 603.329 109.132 C 601.129 110.832 598.229 111.932 595.129 111.932 C 588.129 111.932 582.429 106.232 582.429 99.532 C 582.429 92.832 588.129 86.932 595.129 86.932 M 649.429 108.432 C 647.329 110.632 644.429 111.832 641.429 111.832 C 638.329 111.832 635.429 110.632 633.429 108.432 C 631.329 106.132 630.129 103.032 630.129 99.432 C 630.129 95.732 631.329 92.632 633.429 90.432 C 635.429 88.132 638.329 86.832 641.429 86.832 C 644.429 86.832 647.329 88.032 649.429 90.432 C 651.529 92.632 652.829 95.732 652.829 99.432 C 652.729 103.032 651.429 106.232 649.429 108.432 Z M 657.329 77.632 C 655.129 77.632 653.329 79.332 652.829 81.432 C 649.529 79.132 645.729 77.632 641.429 77.632 C 635.529 77.632 630.529 80.132 626.829 84.132 C 623.129 88.032 620.929 93.432 620.929 99.432 C 620.929 105.332 623.129 110.732 626.829 114.732 C 630.529 118.632 635.629 121.032 641.429 121.032 C 645.729 121.032 649.629 119.632 652.829 117.332 C 653.329 119.432 655.029 121.032 657.329 121.032 C 659.829 121.032 661.929 118.932 661.929 116.432 L 661.929 82.232 C 661.829 79.732 659.829 77.632 657.329 77.632 L 657.329 77.632 Z M 675.929 65.032 L 675.929 116.332 C 675.929 118.932 678.129 121.132 680.629 121.132 C 683.329 121.132 685.429 118.932 685.429 116.332 L 685.429 65.032 C 685.429 62.432 683.229 60.232 680.629 60.232 C 678.129 60.232 675.929 62.432 675.929 65.032 Z M 228.529 107.232 L 203.629 150.732 C 200.229 156.732 193.829 160.532 186.929 160.532 L 137.229 160.532 C 130.329 160.532 123.929 156.832 120.529 150.732 L 95.629 107.232 C 92.229 101.232 92.229 93.732 95.629 87.732 L 120.529 44.232 C 123.929 38.232 130.329 34.432 137.229 34.432 L 186.929 34.432 C 193.829 34.432 200.229 38.132 203.629 44.232 L 228.529 87.732 C 231.929 93.732 231.929 101.232 228.529 107.232 Z M 210.229 40.432 C 205.429 32.032 196.529 26.832 186.929 26.832 L 137.229 26.832 C 127.629 26.832 118.729 32.032 113.929 40.432 L 89.029 83.932 C 84.229 92.332 84.229 102.732 89.029 111.132 L 113.929 154.632 C 118.729 163.032 127.629 168.232 137.229 168.232 L 186.929 168.232 C 196.529 168.232 205.429 163.032 210.229 154.632 L 235.129 111.132 C 239.929 102.732 239.929 92.332 235.129 83.932 L 210.229 40.432 L 210.229 40.432 Z M 162.129 108.032 C 151.729 108.032 143.229 99.432 143.229 88.932 C 143.229 78.432 151.729 69.832 162.129 69.832 C 172.529 69.832 181.029 78.432 181.029 88.932 C 181.029 99.432 172.529 108.032 162.129 108.032 Z M 162.129 60.232 C 146.429 60.232 133.729 73.032 133.729 88.832 C 133.729 104.632 157.329 136.532 162.129 136.532 C 166.829 136.532 190.529 104.632 190.529 88.832 C 190.429 73.132 177.729 60.232 162.129 60.232 L 162.129 60.232 Z" style="fill: rgb(28, 117, 188);"/>
</svg>
